<mxfile host="app.diagrams.net" agent="Mozilla/5.0 (Windows NT 10.0; Win64; x64) AppleWebKit/537.36 (KHTML, like Gecko) Chrome/131.0.0.0 Safari/537.36" version="26.0.5">
  <diagram name="Page-1" id="wJPzSrnuD0-9DPxej07Z">
    <mxGraphModel dx="2203" dy="896" grid="0" gridSize="10" guides="0" tooltips="0" connect="1" arrows="1" fold="1" page="0" pageScale="1" pageWidth="850" pageHeight="1100" math="0" shadow="0">
      <root>
        <mxCell id="0" />
        <mxCell id="1" parent="0" />
        <mxCell id="783OgWmeai5mKdStS9SS-3" value="" style="edgeStyle=orthogonalEdgeStyle;rounded=0;orthogonalLoop=1;jettySize=auto;html=1;startArrow=classic;startFill=1;endArrow=none;endFill=0;fontSize=16;entryX=0.988;entryY=0.49;entryDx=0;entryDy=0;entryPerimeter=0;exitX=0;exitY=0.5;exitDx=0;exitDy=0;strokeColor=#CDA2BE;" parent="1" source="O4jTcRz5tUedmGzt3tnk-2" target="O4jTcRz5tUedmGzt3tnk-10" edge="1">
          <mxGeometry relative="1" as="geometry">
            <mxPoint x="213" y="160" as="sourcePoint" />
            <mxPoint x="52" y="160" as="targetPoint" />
          </mxGeometry>
        </mxCell>
        <mxCell id="783OgWmeai5mKdStS9SS-6" value="&amp;nbsp;MongoDB Atlas" style="shape=cylinder3;whiteSpace=wrap;html=1;boundedLbl=1;backgroundOutline=1;size=15;fontSize=16;verticalAlign=middle;spacingTop=0;spacingBottom=0;labelPosition=center;verticalLabelPosition=middle;align=center;fillColor=#E6FFCC;strokeColor=light-dark(#91e63d, #006000);" parent="1" vertex="1">
          <mxGeometry x="430" y="98" width="82" height="113" as="geometry" />
        </mxCell>
        <mxCell id="783OgWmeai5mKdStS9SS-9" value="" style="endArrow=classic;html=1;rounded=0;entryX=0.5;entryY=0;entryDx=0;entryDy=0;exitX=1;exitY=0.5;exitDx=0;exitDy=0;exitPerimeter=0;fontSize=16;strokeColor=#CCFF99;" parent="1" source="783OgWmeai5mKdStS9SS-6" target="783OgWmeai5mKdStS9SS-11" edge="1">
          <mxGeometry width="50" height="50" relative="1" as="geometry">
            <mxPoint x="332" y="400" as="sourcePoint" />
            <mxPoint x="742" y="160" as="targetPoint" />
            <Array as="points">
              <mxPoint x="780" y="155" />
            </Array>
          </mxGeometry>
        </mxCell>
        <mxCell id="783OgWmeai5mKdStS9SS-13" value="" style="edgeStyle=orthogonalEdgeStyle;rounded=0;orthogonalLoop=1;jettySize=auto;html=1;exitX=0.5;exitY=1;exitDx=0;exitDy=0;entryX=0.5;entryY=0;entryDx=0;entryDy=0;entryPerimeter=0;fontSize=16;strokeColor=#CCFF99;" parent="1" source="783OgWmeai5mKdStS9SS-11" target="783OgWmeai5mKdStS9SS-12" edge="1">
          <mxGeometry relative="1" as="geometry">
            <mxPoint x="868" y="160" as="sourcePoint" />
            <mxPoint x="1128" y="160" as="targetPoint" />
            <Array as="points">
              <mxPoint x="762" y="255" />
              <mxPoint x="772" y="255" />
            </Array>
          </mxGeometry>
        </mxCell>
        <mxCell id="783OgWmeai5mKdStS9SS-11" value="Embedding Model" style="rounded=1;whiteSpace=wrap;html=1;fontSize=16;strokeColor=#6C8EBF;" parent="1" vertex="1">
          <mxGeometry x="720" y="242" width="120" height="60" as="geometry" />
        </mxCell>
        <mxCell id="ZdcENUANDSbNlizIBVIP-10" value="" style="edgeStyle=orthogonalEdgeStyle;rounded=0;orthogonalLoop=1;jettySize=auto;html=1;fontSize=16;strokeColor=#99CCFF;entryX=0.625;entryY=0;entryDx=0;entryDy=0;" parent="1" source="783OgWmeai5mKdStS9SS-12" target="ZdcENUANDSbNlizIBVIP-8" edge="1">
          <mxGeometry relative="1" as="geometry" />
        </mxCell>
        <mxCell id="783OgWmeai5mKdStS9SS-12" value="MongoDB Atlas Vector Search" style="shape=cylinder3;whiteSpace=wrap;html=1;boundedLbl=1;backgroundOutline=1;size=15;fontSize=16;fillColor=#E6FFCC;strokeColor=#82b366;" parent="1" vertex="1">
          <mxGeometry x="736" y="376" width="96" height="111" as="geometry" />
        </mxCell>
        <mxCell id="783OgWmeai5mKdStS9SS-15" value="Atlas Vector Search" style="rounded=1;whiteSpace=wrap;html=1;fontSize=16;strokeColor=#91E63D;" parent="1" vertex="1">
          <mxGeometry x="381" y="401" width="120" height="60" as="geometry" />
        </mxCell>
        <mxCell id="ZdcENUANDSbNlizIBVIP-2" style="edgeStyle=orthogonalEdgeStyle;rounded=0;orthogonalLoop=1;jettySize=auto;html=1;exitX=1;exitY=0.5;exitDx=0;exitDy=0;entryX=0;entryY=0.5;entryDx=0;entryDy=0;fontSize=16;strokeColor=#FFB570;" parent="1" source="ZdcENUANDSbNlizIBVIP-1" target="783OgWmeai5mKdStS9SS-15" edge="1">
          <mxGeometry relative="1" as="geometry" />
        </mxCell>
        <mxCell id="ZdcENUANDSbNlizIBVIP-1" value="Embedding Model" style="rounded=1;whiteSpace=wrap;html=1;fontSize=16;strokeColor=#6C8EBF;" parent="1" vertex="1">
          <mxGeometry x="123" y="401" width="120" height="60" as="geometry" />
        </mxCell>
        <mxCell id="ZdcENUANDSbNlizIBVIP-5" style="edgeStyle=orthogonalEdgeStyle;rounded=0;orthogonalLoop=1;jettySize=auto;html=1;entryX=0;entryY=0.5;entryDx=0;entryDy=0;fontSize=16;strokeColor=#FFB570;" parent="1" source="ZdcENUANDSbNlizIBVIP-4" target="ZdcENUANDSbNlizIBVIP-1" edge="1">
          <mxGeometry relative="1" as="geometry" />
        </mxCell>
        <mxCell id="ZdcENUANDSbNlizIBVIP-4" value="Query" style="ellipse;whiteSpace=wrap;html=1;fontSize=16;strokeColor=#CC6600;" parent="1" vertex="1">
          <mxGeometry x="-58" y="401" width="90" height="60" as="geometry" />
        </mxCell>
        <mxCell id="ZdcENUANDSbNlizIBVIP-6" style="edgeStyle=orthogonalEdgeStyle;rounded=0;orthogonalLoop=1;jettySize=auto;html=1;exitX=1;exitY=0.5;exitDx=0;exitDy=0;entryX=0;entryY=0.5;entryDx=0;entryDy=0;entryPerimeter=0;fontSize=16;strokeColor=#FFB570;" parent="1" source="783OgWmeai5mKdStS9SS-15" target="783OgWmeai5mKdStS9SS-12" edge="1">
          <mxGeometry relative="1" as="geometry" />
        </mxCell>
        <mxCell id="ZdcENUANDSbNlizIBVIP-13" style="edgeStyle=orthogonalEdgeStyle;rounded=0;orthogonalLoop=1;jettySize=auto;html=1;exitX=0;exitY=0.5;exitDx=0;exitDy=0;entryX=1;entryY=0.5;entryDx=0;entryDy=0;fontSize=16;strokeColor=#99CCFF;" parent="1" source="ZdcENUANDSbNlizIBVIP-8" target="ZdcENUANDSbNlizIBVIP-12" edge="1">
          <mxGeometry relative="1" as="geometry" />
        </mxCell>
        <mxCell id="ZdcENUANDSbNlizIBVIP-8" value="Prompt" style="shape=hexagon;perimeter=hexagonPerimeter2;whiteSpace=wrap;html=1;fixedSize=1;fontSize=16;strokeColor=#6C8EBF;" parent="1" vertex="1">
          <mxGeometry x="708" y="642" width="120" height="80" as="geometry" />
        </mxCell>
        <mxCell id="ZdcENUANDSbNlizIBVIP-9" value="" style="endArrow=classic;html=1;rounded=0;exitX=0.5;exitY=1;exitDx=0;exitDy=0;fontSize=16;strokeColor=#FFCCCC;fillColor=#fff2cc;entryX=0.375;entryY=0;entryDx=0;entryDy=0;edgeStyle=orthogonalEdgeStyle;" parent="1" source="ZdcENUANDSbNlizIBVIP-4" target="ZdcENUANDSbNlizIBVIP-8" edge="1">
          <mxGeometry width="50" height="50" relative="1" as="geometry">
            <mxPoint x="472" y="581" as="sourcePoint" />
            <mxPoint x="713" y="603" as="targetPoint" />
            <Array as="points">
              <mxPoint x="-13" y="558" />
              <mxPoint x="753" y="558" />
            </Array>
          </mxGeometry>
        </mxCell>
        <mxCell id="O4jTcRz5tUedmGzt3tnk-34" value="Update" style="edgeLabel;html=1;align=center;verticalAlign=middle;resizable=0;points=[];comic=0;pointerEvents=0;fontFamily=Helvetica;fontSize=16;fontColor=default;labelBackgroundColor=default;fillColor=none;gradientColor=none;" parent="ZdcENUANDSbNlizIBVIP-9" connectable="0" vertex="1">
          <mxGeometry x="0.1268" y="-1" relative="1" as="geometry">
            <mxPoint as="offset" />
          </mxGeometry>
        </mxCell>
        <mxCell id="ZdcENUANDSbNlizIBVIP-16" style="edgeStyle=orthogonalEdgeStyle;rounded=0;orthogonalLoop=1;jettySize=auto;html=1;exitX=0;exitY=0.5;exitDx=0;exitDy=0;entryX=1;entryY=0.5;entryDx=0;entryDy=0;fontSize=16;fillColor=#dae8fc;strokeColor=#99CCFF;" parent="1" source="ZdcENUANDSbNlizIBVIP-12" target="ZdcENUANDSbNlizIBVIP-15" edge="1">
          <mxGeometry relative="1" as="geometry" />
        </mxCell>
        <mxCell id="ZdcENUANDSbNlizIBVIP-12" value="LLM" style="shape=hexagon;perimeter=hexagonPerimeter2;whiteSpace=wrap;html=1;fixedSize=1;fontSize=16;fillColor=#dae8fc;strokeColor=#6C8EBF;" parent="1" vertex="1">
          <mxGeometry x="478" y="643" width="120" height="80" as="geometry" />
        </mxCell>
        <mxCell id="ZdcENUANDSbNlizIBVIP-15" value="&amp;nbsp;Response" style="ellipse;whiteSpace=wrap;html=1;fontSize=16;strokeColor=#007FFF;" parent="1" vertex="1">
          <mxGeometry x="212" y="652" width="90" height="60" as="geometry" />
        </mxCell>
        <mxCell id="O4jTcRz5tUedmGzt3tnk-11" value="" style="group;dashed=1;dashPattern=1 1;strokeWidth=0;" parent="1" connectable="0" vertex="1">
          <mxGeometry x="-50" y="114" width="84" height="83" as="geometry" />
        </mxCell>
        <mxCell id="O4jTcRz5tUedmGzt3tnk-9" value="" style="ellipse;whiteSpace=wrap;html=1;aspect=fixed;comic=0;pointerEvents=0;align=center;verticalAlign=bottom;fontFamily=Helvetica;fontSize=16;labelBackgroundColor=default;resizable=1;fillColor=#FBF2FF;strokeColor=#9673A6;" parent="O4jTcRz5tUedmGzt3tnk-11" vertex="1">
          <mxGeometry x="-1" y="-1" width="83" height="83" as="geometry" />
        </mxCell>
        <mxCell id="O4jTcRz5tUedmGzt3tnk-10" value="&lt;span&gt;Target&lt;/span&gt;&lt;div&gt;&lt;span&gt;Website&lt;/span&gt;&lt;/div&gt;" style="text;html=1;align=center;verticalAlign=middle;resizable=1;points=[];autosize=1;strokeColor=none;fillColor=none;fontFamily=Helvetica;fontSize=16;labelBackgroundColor=none;" parent="O4jTcRz5tUedmGzt3tnk-11" vertex="1">
          <mxGeometry y="16" width="84" height="50" as="geometry" />
        </mxCell>
        <mxCell id="O4jTcRz5tUedmGzt3tnk-12" value="" style="group;fillColor=#E5CCFF;strokeColor=#9673A6;" parent="1" connectable="0" vertex="1">
          <mxGeometry x="169" y="65" width="158" height="178" as="geometry" />
        </mxCell>
        <mxCell id="O4jTcRz5tUedmGzt3tnk-2" value="ZAP" style="rounded=0;whiteSpace=wrap;html=1;fontSize=16;labelPosition=center;verticalLabelPosition=top;align=center;verticalAlign=bottom;strokeColor=#9673A6;" parent="O4jTcRz5tUedmGzt3tnk-12" vertex="1">
          <mxGeometry width="158" height="178" as="geometry" />
        </mxCell>
        <mxCell id="O4jTcRz5tUedmGzt3tnk-3" value="Web Scanner" style="rounded=1;whiteSpace=wrap;html=1;fontSize=16;fillColor=#CCCCFF;strokeColor=#9673a6;" parent="O4jTcRz5tUedmGzt3tnk-12" vertex="1">
          <mxGeometry x="20" y="97" width="120" height="60" as="geometry" />
        </mxCell>
        <mxCell id="O4jTcRz5tUedmGzt3tnk-4" value="&lt;span style=&quot;color: rgb(31, 31, 31); font-family: &amp;quot;Google Sans&amp;quot;, Arial, sans-serif; text-align: start;&quot;&gt;&lt;font&gt;Web crawler&lt;/font&gt;&lt;/span&gt;" style="rounded=1;whiteSpace=wrap;html=1;fontSize=16;fillColor=#CCCCFF;strokeColor=#9673a6;" parent="O4jTcRz5tUedmGzt3tnk-12" vertex="1">
          <mxGeometry x="19" y="23" width="120" height="60" as="geometry" />
        </mxCell>
        <mxCell id="O4jTcRz5tUedmGzt3tnk-18" value="Scanning &amp;amp; Crawling" style="text;html=1;align=center;verticalAlign=middle;whiteSpace=wrap;rounded=0;fontFamily=Helvetica;fontSize=11;fontColor=default;labelBackgroundColor=default;resizable=1;" parent="1" vertex="1">
          <mxGeometry x="26" y="135" width="151" height="18" as="geometry" />
        </mxCell>
        <mxCell id="O4jTcRz5tUedmGzt3tnk-19" value="&lt;font style=&quot;font-size: 12px;&quot;&gt;Raw data processing&lt;/font&gt;" style="text;html=1;align=center;verticalAlign=middle;whiteSpace=wrap;rounded=0;fontFamily=Helvetica;fontSize=16;fontColor=default;labelBackgroundColor=default;resizable=1;" parent="1" vertex="1">
          <mxGeometry x="332" y="117" width="88" height="30" as="geometry" />
        </mxCell>
        <mxCell id="O4jTcRz5tUedmGzt3tnk-20" value="&amp;nbsp;Chunking data" style="text;html=1;align=center;verticalAlign=middle;whiteSpace=wrap;rounded=0;fontFamily=Helvetica;fontSize=12;fontColor=default;labelBackgroundColor=default;resizable=1;labelPosition=center;verticalLabelPosition=middle;spacingTop=0;spacing=0;" parent="1" vertex="1">
          <mxGeometry x="729" y="201" width="101" height="14" as="geometry" />
        </mxCell>
        <mxCell id="O4jTcRz5tUedmGzt3tnk-21" value="Vector embedding of data" style="text;html=1;align=center;verticalAlign=middle;whiteSpace=wrap;rounded=0;fontFamily=Helvetica;fontSize=12;fontColor=default;labelBackgroundColor=default;resizable=1;" parent="1" vertex="1">
          <mxGeometry x="728" y="314" width="109" height="41" as="geometry" />
        </mxCell>
        <mxCell id="O4jTcRz5tUedmGzt3tnk-22" value="Query vector" style="text;html=1;align=center;verticalAlign=middle;whiteSpace=wrap;rounded=0;fontFamily=Helvetica;fontSize=12;fontColor=default;labelBackgroundColor=default;resizable=1;spacingTop=10;" parent="1" vertex="1">
          <mxGeometry x="274" y="400" width="76" height="30" as="geometry" />
        </mxCell>
        <mxCell id="O4jTcRz5tUedmGzt3tnk-23" value="Semantic search" style="text;html=1;align=center;verticalAlign=middle;whiteSpace=wrap;rounded=0;fontFamily=Helvetica;fontSize=12;fontColor=default;labelBackgroundColor=default;resizable=1;spacingTop=10;" parent="1" vertex="1">
          <mxGeometry x="518" y="400" width="98" height="30" as="geometry" />
        </mxCell>
        <mxCell id="O4jTcRz5tUedmGzt3tnk-24" value="Relevant document" style="text;html=1;align=center;verticalAlign=middle;whiteSpace=wrap;rounded=0;fontFamily=Helvetica;fontSize=12;fontColor=default;labelBackgroundColor=default;resizable=1;spacingTop=10;" parent="1" vertex="1">
          <mxGeometry x="753" y="511" width="60" height="30" as="geometry" />
        </mxCell>
        <mxCell id="O4jTcRz5tUedmGzt3tnk-26" value="&lt;b&gt;Collection&lt;/b&gt;" style="rounded=1;whiteSpace=wrap;html=1;comic=0;pointerEvents=0;align=center;verticalAlign=bottom;fontFamily=Helvetica;fontSize=16;fontColor=default;labelBackgroundColor=default;resizable=1;fillColor=none;gradientColor=none;dashed=1;labelPosition=center;verticalLabelPosition=top;spacingLeft=0;spacingRight=450;strokeColor=#9673A6;" parent="1" vertex="1">
          <mxGeometry x="-63" y="25" width="592" height="253.5" as="geometry" />
        </mxCell>
        <mxCell id="O4jTcRz5tUedmGzt3tnk-27" value="&lt;b&gt;Ingestion&lt;/b&gt;" style="rounded=1;whiteSpace=wrap;html=1;comic=0;pointerEvents=0;align=center;verticalAlign=bottom;fontFamily=Helvetica;fontSize=16;fontColor=default;labelBackgroundColor=default;resizable=1;fillColor=none;gradientColor=none;dashed=1;labelPosition=center;verticalLabelPosition=top;spacingLeft=0;spacingRight=50;strokeColor=#82B366;" parent="1" vertex="1">
          <mxGeometry x="695" y="189" width="171" height="314" as="geometry" />
        </mxCell>
        <mxCell id="O4jTcRz5tUedmGzt3tnk-29" value="&lt;b&gt;Retrieval&lt;/b&gt;" style="rounded=1;whiteSpace=wrap;html=1;comic=0;pointerEvents=0;align=center;verticalAlign=bottom;fontFamily=Helvetica;fontSize=16;fontColor=default;labelBackgroundColor=default;resizable=1;fillColor=none;gradientColor=none;dashed=1;labelPosition=center;verticalLabelPosition=top;spacingLeft=0;spacingRight=450;strokeColor=#CC6600;" parent="1" vertex="1">
          <mxGeometry x="79" y="343" width="563" height="172.5" as="geometry" />
        </mxCell>
        <mxCell id="O4jTcRz5tUedmGzt3tnk-30" value="&lt;b&gt;Generation&lt;/b&gt;" style="rounded=1;whiteSpace=wrap;html=1;comic=0;pointerEvents=0;align=center;verticalAlign=bottom;fontFamily=Helvetica;fontSize=16;fontColor=default;labelBackgroundColor=default;resizable=1;fillColor=none;gradientColor=none;dashed=1;labelPosition=center;verticalLabelPosition=top;spacingLeft=0;spacingRight=550;strokeColor=#007FFF;" parent="1" vertex="1">
          <mxGeometry x="191" y="604" width="660" height="160" as="geometry" />
        </mxCell>
        <mxCell id="fz-cJGcKrdsOTxwCRgYT-1" value="Chat History" style="rhombus;whiteSpace=wrap;html=1;strokeColor=#EA6B66;" vertex="1" parent="1">
          <mxGeometry x="499" y="806" width="80" height="80" as="geometry" />
        </mxCell>
        <mxCell id="fz-cJGcKrdsOTxwCRgYT-4" value="" style="endArrow=classic;html=1;rounded=0;exitX=0.5;exitY=1;exitDx=0;exitDy=0;fontSize=16;strokeColor=#FFCCCC;fillColor=#fff2cc;entryX=0;entryY=0.5;entryDx=0;entryDy=0;edgeStyle=orthogonalEdgeStyle;" edge="1" parent="1" source="ZdcENUANDSbNlizIBVIP-15" target="fz-cJGcKrdsOTxwCRgYT-1">
          <mxGeometry width="50" height="50" relative="1" as="geometry">
            <mxPoint x="65.93" y="648" as="sourcePoint" />
            <mxPoint x="831.9300000000001" y="829" as="targetPoint" />
          </mxGeometry>
        </mxCell>
        <mxCell id="fz-cJGcKrdsOTxwCRgYT-5" value="Update" style="edgeLabel;html=1;align=center;verticalAlign=middle;resizable=0;points=[];comic=0;pointerEvents=0;fontFamily=Helvetica;fontSize=16;fontColor=default;labelBackgroundColor=default;fillColor=none;gradientColor=none;" connectable="0" vertex="1" parent="fz-cJGcKrdsOTxwCRgYT-4">
          <mxGeometry x="0.1268" y="-1" relative="1" as="geometry">
            <mxPoint as="offset" />
          </mxGeometry>
        </mxCell>
        <mxCell id="fz-cJGcKrdsOTxwCRgYT-7" value="" style="endArrow=classic;html=1;rounded=0;exitX=0.5;exitY=0;exitDx=0;exitDy=0;fontSize=16;strokeColor=#FFCCCC;fillColor=#fff2cc;entryX=0.5;entryY=1;entryDx=0;entryDy=0;" edge="1" parent="1" source="fz-cJGcKrdsOTxwCRgYT-1" target="ZdcENUANDSbNlizIBVIP-12">
          <mxGeometry width="50" height="50" relative="1" as="geometry">
            <mxPoint x="267" y="722" as="sourcePoint" />
            <mxPoint x="504" y="848" as="targetPoint" />
          </mxGeometry>
        </mxCell>
      </root>
    </mxGraphModel>
  </diagram>
</mxfile>
